<?xml version="1.0" standalone="no"?>
<!DOCTYPE svg PUBLIC "-//W3C//DTD SVG 20010904//EN"
 "http://www.w3.org/TR/2001/REC-SVG-20010904/DTD/svg10.dtd">
<svg version="1.0" xmlns="http://www.w3.org/2000/svg"
 width="470.000000pt" height="470.000000pt" viewBox="0 0 470.000000 470.000000"
 preserveAspectRatio="xMidYMid meet">

<g transform="translate(0.000000,470.000000) scale(0.100000,-0.100000)"
fill="#000000" stroke="none">
<path d="M2005 4633 c-331 -44 -681 -176 -965 -363 -554 -367 -928 -951 -1025
-1605 -23 -155 -21 -546 5 -700 83 -509 328 -976 696 -1324 350 -331 774 -537
1269 -617 155 -26 505 -26 665 -1 491 77 931 293 1274 626 369 359 592 777
687 1291 26 138 37 483 20 630 -80 701 -455 1316 -1041 1703 -214 141 -525
273 -770 326 -243 52 -577 66 -815 34z m595 -44 c590 -77 1132 -382 1499 -844
355 -447 531 -1005 491 -1565 -23 -329 -96 -594 -242 -883 -352 -693 -1030
-1158 -1807 -1238 -143 -15 -451 -6 -581 16 -385 65 -718 209 -1035 448 -103
78 -334 309 -412 412 -235 312 -378 638 -444 1010 -27 153 -36 447 -20 606 71
684 435 1289 1005 1671 323 216 693 345 1081 378 112 10 351 4 465 -11z"/>
<path d="M2070 4509 c-582 -66 -1131 -375 -1490 -841 -234 -302 -386 -668
-442 -1063 -19 -133 -15 -455 6 -595 72 -472 290 -904 621 -1235 666 -666
1687 -833 2529 -413 637 318 1072 912 1193 1627 28 165 25 533 -6 705 -84 473
-296 875 -637 1207 -351 341 -804 555 -1286 608 -112 13 -378 12 -488 0z m499
-35 c375 -43 741 -191 1051 -423 93 -69 282 -251 365 -351 215 -258 382 -607
449 -940 132 -654 -35 -1311 -462 -1820 -344 -411 -817 -674 -1357 -756 -151
-22 -433 -23 -590 0 -709 102 -1312 532 -1634 1166 -162 319 -235 625 -234
985 1 200 17 331 63 516 177 710 721 1297 1417 1528 298 99 618 132 932 95z"/>
<path d="M2162 4219 c-31 -12 -18 -30 17 -23 38 8 51 -13 14 -22 -15 -4 -34
-11 -40 -17 -16 -12 -17 -49 -1 -65 14 -14 54 -16 62 -3 3 4 16 6 28 4 22 -4
23 -2 20 51 -5 76 -38 100 -100 75z m58 -84 c0 -16 -27 -32 -37 -22 -3 4 -3
13 0 22 8 20 37 20 37 0z"/>
<path d="M2310 4203 c-16 -20 -20 -36 -16 -57 9 -44 25 -58 63 -54 26 3 33 1
31 -11 -2 -11 -15 -16 -38 -16 -35 0 -53 -12 -44 -27 3 -4 24 -8 48 -8 61 0
74 18 77 115 3 69 1 80 -14 83 -9 2 -17 -2 -17 -9 0 -10 -3 -10 -12 -1 -20 20
-55 13 -78 -15z m75 -43 c0 -28 -4 -35 -20 -35 -13 0 -21 8 -23 23 -5 34 5 54
25 50 13 -2 18 -13 18 -38z"/>
<path d="M2502 4213 c-15 -6 -42 -56 -42 -78 0 -29 46 -65 85 -65 24 0 35 4
35 15 0 10 -10 15 -29 15 -16 0 -34 7 -42 16 -12 14 -8 15 37 13 44 -3 49 -1
52 19 6 41 -53 82 -96 65z m56 -40 c2 -8 -6 -13 -22 -13 -25 0 -33 10 -19 24
10 10 36 3 41 -11z"/>
<path d="M2016 4201 c-3 -4 -18 -6 -32 -3 -24 4 -26 2 -21 -19 3 -13 9 -45 12
-71 6 -39 11 -48 28 -48 18 0 19 5 14 49 -6 50 5 74 29 64 7 -3 17 -27 20 -54
5 -39 10 -49 23 -47 13 3 16 15 14 57 -2 29 -8 60 -14 67 -13 15 -65 19 -73 5z"/>
<path d="M2631 4143 c-15 -76 -14 -83 8 -83 15 0 21 10 26 39 7 45 30 70 46
54 7 -7 7 -23 0 -49 -15 -54 -14 -64 7 -64 13 0 23 13 33 48 25 85 59 47 36
-41 -7 -26 -5 -28 15 -25 24 3 35 30 37 89 1 44 -19 64 -54 55 -17 -4 -31 -1
-42 9 -10 10 -25 14 -39 11 -12 -3 -26 -2 -29 4 -16 25 -33 7 -44 -47z"/>
<path d="M1696 4183 c-16 -4 -18 -13 -14 -74 2 -38 3 -69 2 -69 -1 0 -18 23
-38 50 -34 48 -56 59 -83 42 -10 -6 -7 -28 13 -92 29 -95 33 -103 53 -91 11 7
10 20 -8 72 -11 34 -19 64 -17 66 1 2 19 -22 40 -52 24 -37 43 -55 57 -55 20
0 20 4 15 78 -6 81 -5 81 33 -10 16 -38 23 -46 40 -41 22 6 22 7 -27 116 -17
37 -34 66 -39 66 -4 -1 -16 -3 -27 -6z"/>
<path d="M1838 4168 c-16 -5 -28 -16 -28 -24 0 -17 1 -17 33 -5 13 5 30 6 37
1 9 -6 7 -10 -9 -15 -31 -10 -51 -33 -51 -61 0 -30 35 -47 65 -31 11 6 27 10
37 9 9 -2 19 2 23 7 10 17 -16 94 -38 114 -22 19 -30 20 -69 5z m62 -83 c0
-16 -27 -32 -37 -22 -3 4 -3 13 0 22 8 20 37 20 37 0z"/>
<path d="M2881 4094 c-37 -47 -23 -95 34 -114 33 -11 55 -7 55 9 0 4 -15 11
-32 16 -19 6 -34 18 -36 28 -3 17 -1 17 38 1 36 -14 43 -15 51 -3 42 66 -61
125 -110 63z m79 -21 c0 -10 -6 -13 -16 -9 -9 3 -20 6 -26 6 -7 0 -6 5 2 14
14 18 40 10 40 -11z"/>
<path d="M3022 4018 c-28 -62 -29 -63 -9 -73 13 -6 22 -6 24 0 10 31 40 79 50
83 23 7 26 -28 7 -69 -15 -35 -16 -42 -3 -50 23 -14 25 -12 49 42 27 65 17 99
-29 99 -16 0 -31 6 -35 15 -10 28 -26 15 -54 -47z"/>
<path d="M1345 4015 c-30 -29 -31 -35 -4 -69 11 -14 17 -31 14 -36 -12 -19 5
-61 28 -69 28 -11 74 5 88 30 5 11 14 17 19 14 6 -4 19 0 31 8 l21 15 -21 7
c-14 4 -21 15 -21 33 0 34 -14 57 -29 48 -6 -4 -11 -18 -11 -32 0 -19 -5 -25
-17 -22 -13 3 -17 12 -15 35 3 32 -18 63 -44 63 -8 0 -26 -11 -39 -25z m48
-41 c-3 -8 -9 -14 -13 -14 -14 0 -22 20 -16 37 5 12 9 13 21 3 7 -6 11 -18 8
-26z m44 -92 c-19 -19 -47 -9 -47 17 0 18 3 19 31 9 27 -9 29 -12 16 -26z"/>
<path d="M3210 4010 c-8 -5 -15 -17 -15 -27 -1 -10 -9 -35 -20 -56 -22 -44
-13 -70 25 -75 20 -3 22 -1 16 22 -8 34 12 78 34 71 23 -7 34 21 13 30 -13 4
-14 8 -5 17 7 7 12 16 12 20 0 11 -42 10 -60 -2z"/>
<path d="M3367 3922 c-21 -23 -22 -52 -2 -78 35 -46 2 -74 -40 -34 -19 18 -24
19 -34 6 -10 -12 -6 -19 22 -40 44 -34 81 -34 103 0 16 24 16 28 -4 70 -19 39
-20 45 -7 51 9 3 24 -2 34 -11 22 -20 41 -21 41 -2 0 20 -48 56 -75 56 -12 0
-29 -8 -38 -18z"/>
<path d="M1214 3866 c-3 -8 -16 -17 -29 -20 -50 -13 -56 -75 -13 -116 28 -26
60 -26 83 0 14 15 21 17 29 9 8 -8 2 -18 -21 -38 -21 -18 -29 -31 -24 -40 19
-30 96 46 85 83 -8 26 -86 135 -97 136 -4 0 -10 -6 -13 -14z m26 -67 c13 -24
7 -49 -13 -49 -21 0 -50 37 -44 55 9 22 44 19 57 -6z"/>
<path d="M3450 3770 c-29 -29 -26 -76 6 -105 49 -45 75 -26 28 20 -14 14 -22
30 -18 36 4 7 18 -1 38 -20 31 -30 33 -31 49 -13 22 24 22 65 -1 85 -25 23
-78 21 -102 -3z m86 -21 c13 -22 -12 -30 -31 -9 -18 19 -18 20 3 20 11 0 24
-5 28 -11z"/>
<path d="M1038 3725 c-6 -14 -17 -25 -24 -25 -31 0 -23 -25 22 -71 42 -43 50
-47 63 -35 12 13 10 19 -17 51 -36 40 -39 53 -16 62 10 3 29 -8 53 -31 34 -33
39 -35 51 -21 11 14 8 21 -25 55 -47 49 -89 54 -107 15z"/>
<path d="M3565 3660 c-47 -48 -48 -51 -32 -68 17 -16 19 -15 45 16 23 27 33
32 62 30 26 -2 35 1 35 12 0 8 -10 16 -23 18 -12 2 -20 7 -17 12 3 4 -1 13 -8
19 -10 8 -25 -1 -62 -39z"/>
<path d="M2080 3680 c-573 -105 -1005 -535 -1116 -1110 -26 -137 -24 -371 5
-507 60 -287 188 -520 395 -721 195 -189 416 -306 689 -363 146 -31 380 -31
527 0 286 61 508 180 710 381 271 270 413 636 397 1025 -26 622 -455 1138
-1067 1282 -149 35 -391 41 -540 13z m558 -34 c495 -125 875 -505 998 -998 35
-142 44 -388 20 -539 -92 -558 -525 -1003 -1084 -1116 -122 -25 -394 -24 -512
0 -275 58 -506 183 -700 377 -194 194 -319 425 -377 700 -24 118 -25 390 0
512 53 265 170 487 358 682 159 166 338 279 550 350 162 55 245 66 459 62 159
-3 199 -7 288 -30z"/>
<path d="M2632 3473 c-81 -40 -99 -125 -43 -214 38 -61 35 -87 -11 -122 -24
-18 -44 -21 -180 -23 -84 -1 -195 3 -247 8 -114 11 -136 7 -161 -35 -31 -50
-27 -115 10 -163 51 -68 32 -120 -48 -131 -34 -5 -45 -1 -66 20 -33 33 -33 73
-1 117 51 70 23 146 -64 170 -39 11 -267 12 -316 1 -37 -8 -42 -31 -20 -103 8
-29 18 -82 21 -119 l7 -66 -33 -13 c-30 -13 -36 -11 -82 14 -43 24 -58 28
-109 24 -48 -3 -65 -10 -89 -33 -50 -48 -61 -136 -24 -189 39 -57 137 -75 199
-36 25 16 39 18 58 11 l24 -10 2 -331 c1 -203 5 -339 11 -351 14 -26 62 -49
103 -49 23 0 47 10 72 30 40 32 57 32 103 4 27 -18 30 -74 5 -96 -36 -31 -58
-30 -111 7 -60 41 -127 48 -155 17 -34 -37 -50 -241 -26 -311 l11 -32 77 8
c152 16 282 2 294 -31 3 -8 -7 -30 -21 -51 -21 -29 -27 -49 -26 -89 1 -90 52
-140 144 -140 132 -1 196 114 122 219 -17 25 -32 56 -32 69 0 43 17 47 150 35
67 -6 181 -9 253 -7 148 3 182 15 225 79 30 43 26 104 -10 151 -42 55 -43 74
-9 108 22 22 39 30 66 30 37 0 74 -14 87 -34 16 -23 8 -75 -17 -104 -73 -86
-56 -170 42 -219 44 -21 71 -26 161 -30 59 -3 125 -1 147 4 l39 9 1 136 c0
178 6 184 104 113 87 -64 211 0 211 108 0 50 -24 90 -70 116 -53 30 -114 28
-157 -5 -19 -14 -43 -24 -56 -22 -22 3 -22 4 -29 273 -12 458 -8 416 -47 442
-43 29 -99 30 -134 3 -30 -24 -48 -25 -87 -5 -33 17 -44 43 -35 85 13 61 79
77 141 35 54 -37 123 -35 166 4 32 29 33 31 32 113 0 61 -7 101 -25 153 l-24
70 -125 0 c-113 0 -130 3 -175 25 -64 32 -71 67 -26 124 64 81 48 191 -34 230
-42 20 -121 20 -163 -1z m176 -47 c40 -40 38 -106 -5 -166 -36 -48 -43 -101
-19 -132 7 -10 35 -28 62 -40 42 -19 67 -22 170 -22 l121 0 23 -88 c38 -148
16 -218 -69 -218 -24 0 -49 9 -71 25 -77 57 -177 16 -187 -76 -5 -40 -2 -50
23 -78 39 -43 101 -53 140 -22 32 25 64 27 104 6 l30 -16 0 -133 c0 -161 1
-160 -116 -164 -82 -4 -185 16 -199 38 -4 6 7 26 24 45 52 60 53 134 2 185
-57 58 -166 62 -225 10 -29 -26 -31 -33 -31 -92 0 -53 5 -72 27 -106 16 -24
24 -44 18 -47 -6 -4 -44 -1 -85 6 -54 9 -94 10 -145 3 -81 -11 -70 -25 -90
112 -20 134 -17 153 24 191 44 41 68 41 126 2 48 -32 70 -32 117 -2 34 22 44
54 32 98 -11 40 -57 75 -99 75 -14 0 -38 -9 -55 -20 -55 -36 -150 -20 -162 28
-7 28 4 183 15 227 l9 30 114 0 c128 0 172 14 202 64 24 41 21 74 -9 110 -29
35 -46 87 -38 116 8 26 43 65 69 76 11 5 44 7 73 6 42 -3 59 -10 80 -31z
m-627 -338 l101 -11 -6 -31 c-11 -55 -19 -203 -12 -230 15 -61 137 -88 201
-46 50 33 94 21 114 -33 14 -35 7 -51 -33 -72 -32 -18 -33 -18 -76 14 -24 17
-54 31 -67 31 -35 0 -90 -28 -114 -59 -19 -23 -21 -35 -15 -111 3 -47 10 -110
15 -140 11 -68 -10 -126 -49 -137 -33 -9 -123 -9 -182 1 -49 7 -108 47 -108
71 0 8 17 34 39 58 49 58 57 88 34 135 -38 77 -120 91 -188 31 -53 -47 -56
-87 -11 -152 38 -55 45 -87 23 -105 -18 -15 -327 -27 -347 -13 -12 8 -15 35
-12 152 3 157 -2 172 -60 184 -22 5 -38 2 -59 -14 -19 -14 -43 -21 -75 -21
-39 0 -51 5 -80 34 -38 38 -42 67 -20 120 19 46 52 66 108 66 34 0 57 -7 84
-25 42 -29 73 -31 113 -10 49 25 53 73 20 204 -11 45 -18 86 -14 89 4 4 76 7
160 7 140 0 156 -2 182 -21 38 -28 43 -77 11 -111 -18 -19 -23 -36 -23 -75 0
-44 4 -53 34 -80 31 -27 39 -30 84 -25 41 3 56 11 79 36 38 42 37 86 -2 136
-37 47 -42 113 -10 145 23 23 28 24 161 8z m599 -514 c43 -17 70 -55 70 -97 0
-13 -16 -46 -35 -73 -47 -66 -45 -80 13 -107 63 -28 235 -37 281 -14 l31 15 0
-185 c0 -211 4 -223 70 -223 26 0 43 7 60 25 18 19 33 25 68 25 37 0 50 -6 78
-34 70 -70 24 -176 -75 -176 -20 0 -48 13 -77 36 -60 45 -92 43 -117 -6 -15
-29 -18 -54 -15 -147 4 -130 11 -123 -114 -123 -138 0 -232 34 -252 91 -12 35
-2 68 34 114 32 40 40 97 19 137 -22 42 -115 61 -167 34 -74 -38 -85 -96 -34
-166 37 -51 41 -90 12 -130 -32 -45 -85 -60 -216 -60 -107 0 -116 1 -109 18
44 112 15 302 -46 302 -12 0 -46 -7 -76 -16 -30 -9 -66 -13 -80 -10 -75 20
-99 113 -42 167 38 36 65 36 129 4 62 -32 105 -33 121 -3 11 21 10 76 -7 259
l-7 66 83 13 c66 10 98 10 172 0 85 -13 92 -12 104 5 16 22 11 44 -22 92 -26
39 -32 100 -13 134 12 23 62 48 96 49 13 0 41 -7 63 -16z m-821 -19 c16 -8 34
-28 41 -44 13 -33 4 -56 -45 -111 -13 -14 -26 -35 -29 -47 -11 -34 20 -82 62
-100 50 -21 170 -34 231 -24 49 8 49 7 55 -21 3 -16 9 -71 12 -123 8 -114 2
-120 -85 -81 -67 30 -91 32 -131 11 -73 -38 -95 -134 -44 -194 37 -44 83 -54
167 -35 81 19 80 19 98 -65 11 -54 7 -118 -13 -179 -9 -31 -13 -33 -42 -28
-17 2 -70 8 -117 12 -83 6 -87 5 -103 -17 -25 -36 -20 -80 16 -133 17 -27 31
-61 31 -77 0 -41 -33 -82 -79 -97 -52 -18 -94 -8 -130 29 -40 41 -40 97 0 157
25 37 27 46 17 68 -22 49 -139 71 -291 55 -62 -7 -87 -6 -92 2 -10 16 -9 159
1 221 5 26 14 52 22 57 28 18 74 9 109 -20 46 -37 73 -45 115 -31 45 15 65 44
65 95 0 30 -6 47 -22 62 -57 52 -103 56 -151 13 -41 -35 -74 -38 -111 -9 l-26
20 0 163 0 163 177 7 c162 6 179 9 200 28 38 36 30 87 -24 152 -27 32 -25 66
5 100 33 36 69 43 111 21z"/>
<path d="M895 3670 c-4 -7 -3 -16 3 -22 14 -14 45 -2 40 15 -6 16 -34 21 -43
7z"/>
<path d="M939 3634 c-12 -14 -6 -23 41 -65 48 -41 57 -46 70 -33 12 12 9 19
-25 55 -53 54 -70 63 -86 43z"/>
<path d="M3657 3568 c-32 -57 -34 -65 -20 -80 14 -15 19 -15 81 9 37 13 68 25
69 26 1 1 -5 10 -12 20 -13 18 -15 18 -54 -3 -23 -11 -41 -18 -41 -16 0 3 10
21 21 41 19 32 20 38 7 52 -14 13 -19 8 -51 -49z"/>
<path d="M863 3543 c-10 -16 -23 -32 -30 -36 -23 -14 -13 -31 38 -71 45 -35
52 -37 66 -24 13 14 11 19 -21 44 -34 28 -46 57 -28 68 5 3 28 -9 51 -26 38
-28 44 -29 58 -16 13 14 10 19 -32 52 -57 43 -79 45 -102 9z"/>
<path d="M3835 3520 c-4 -6 -1 -17 5 -26 10 -11 16 -12 26 -3 11 9 11 15 3 25
-14 17 -25 18 -34 4z"/>
<path d="M3755 3458 c-27 -22 -52 -42 -54 -44 -2 -2 2 -10 9 -19 11 -13 18
-11 57 17 61 45 70 56 52 73 -12 12 -21 8 -64 -27z"/>
<path d="M766 3414 c-9 -8 -16 -23 -16 -32 0 -10 -10 -23 -21 -31 -21 -12 -19
-14 40 -54 51 -33 64 -38 72 -26 13 20 12 21 -32 52 -22 15 -39 33 -36 40 7
21 36 19 67 -3 30 -21 60 -21 60 0 0 12 -88 70 -106 70 -7 0 -20 -7 -28 -16z"/>
<path d="M3797 3399 c-31 -18 -39 -56 -21 -95 11 -23 22 -33 31 -30 8 4 17 6
19 6 2 0 -2 11 -11 24 -19 29 -10 54 23 63 20 5 29 1 40 -15 19 -29 46 -18 30
11 -23 44 -70 59 -111 36z"/>
<path d="M3855 3275 c-30 -29 -31 -50 -4 -94 14 -23 24 -30 31 -23 7 7 6 17
-2 31 -6 12 -10 32 -8 44 3 19 7 16 26 -20 12 -24 26 -43 31 -43 13 0 51 49
51 65 0 7 -9 24 -21 39 -27 34 -71 35 -104 1z m85 -20 c10 -12 10 -19 1 -28
-9 -9 -14 -9 -21 3 -22 34 -4 54 20 25z"/>
<path d="M682 3273 c-13 -5 -42 -55 -42 -73 0 -19 25 -10 35 12 6 12 16 24 23
26 9 3 10 -3 2 -24 -15 -39 -5 -72 25 -80 31 -8 55 10 55 41 0 13 7 25 15 29
27 10 16 25 -35 51 -51 26 -56 27 -78 18z m75 -69 c8 -21 -13 -42 -28 -27 -13
13 -5 43 11 43 6 0 13 -7 17 -16z"/>
<path d="M546 3164 c-9 -23 -5 -26 92 -70 69 -31 85 -35 93 -23 5 8 9 17 9 20
0 4 -115 60 -180 87 -4 2 -10 -5 -14 -14z"/>
<path d="M3966 3154 c-9 -8 -16 -29 -16 -45 0 -36 -17 -38 -26 -4 -7 29 -34
34 -34 6 0 -10 9 -30 21 -45 36 -45 79 -29 79 31 0 36 15 44 25 13 3 -11 13
-20 21 -20 21 0 9 39 -18 63 -25 21 -32 21 -52 1z"/>
<path d="M515 3054 c-10 -15 -18 -40 -19 -57 -1 -29 3 -32 82 -63 80 -31 83
-31 93 -13 9 17 6 21 -21 31 -29 10 -31 13 -25 45 9 49 -15 83 -59 83 -25 0
-38 -7 -51 -26z m73 -46 c4 -31 -12 -37 -42 -15 -23 17 -11 49 18 45 15 -2 22
-11 24 -30z"/>
<path d="M4077 2990 c-76 -24 -97 -43 -97 -90 0 -42 33 -80 70 -80 37 0 132
33 137 48 11 28 -13 31 -80 10 -64 -21 -68 -21 -84 -5 -27 26 -6 48 69 75 55
20 65 27 61 43 -6 23 -3 23 -76 -1z"/>
<path d="M502 2838 c2 -13 -2 -30 -9 -37 -8 -7 -12 -15 -10 -17 10 -11 137
-42 137 -34 0 5 3 15 6 23 4 11 -5 17 -35 22 -38 6 -58 24 -59 50 -1 6 -9 12
-18 13 -13 3 -16 -1 -12 -20z"/>
<path d="M4063 2777 c-32 -7 -43 -15 -43 -29 0 -18 5 -19 54 -13 36 5 56 3 61
-4 11 -19 -12 -38 -55 -45 -31 -5 -40 -11 -40 -26 0 -23 13 -25 76 -9 54 14
72 40 53 78 -7 14 -11 34 -10 44 3 20 -27 21 -96 4z"/>
<path d="M477 2712 c-22 -25 -22 -85 1 -105 30 -28 65 -30 95 -7 34 27 37 80
7 110 -26 26 -81 26 -103 2z m78 -36 c37 -27 -2 -58 -49 -40 -16 6 -22 35 -9
47 11 11 38 8 58 -7z"/>
<path d="M4217 2623 c-14 -13 -6 -33 13 -33 13 0 20 7 20 20 0 19 -20 27 -33
13z"/>
<path d="M4095 2611 c-32 -5 -41 -11 -43 -29 -3 -21 -1 -23 25 -19 15 3 47 9
71 12 32 5 42 11 42 26 0 20 -16 22 -95 10z"/>
<path d="M440 2555 c0 -8 -9 -15 -19 -15 -14 0 -18 -5 -14 -20 3 -11 12 -20
19 -20 8 0 14 -4 14 -10 0 -5 7 -10 15 -10 8 0 15 3 15 8 0 4 18 6 40 4 47 -5
70 10 70 44 0 27 -24 33 -34 9 -9 -26 -76 -16 -76 11 0 8 -7 14 -15 14 -8 0
-15 -7 -15 -15z"/>
<path d="M4170 2541 c0 -4 -18 -11 -40 -14 -50 -6 -70 -22 -70 -53 0 -18 6
-24 21 -24 11 0 17 5 14 10 -3 6 6 15 20 20 37 14 55 12 55 -5 0 -8 7 -15 15
-15 8 0 15 7 15 15 0 9 9 15 21 15 15 0 19 4 15 16 -3 9 -6 18 -6 20 0 2 -7 4
-15 4 -8 0 -15 5 -15 10 0 6 -7 10 -15 10 -8 0 -15 -4 -15 -9z"/>
<path d="M430 2416 c0 -61 68 -95 118 -60 27 19 33 94 7 94 -9 0 -15 -9 -15
-25 0 -31 -32 -50 -60 -35 -12 6 -20 21 -20 35 0 16 -6 25 -15 25 -10 0 -15
-10 -15 -34z"/>
<path d="M4063 2345 c-38 -16 -46 -42 -10 -30 51 16 143 17 180 2 31 -14 37
-14 37 -2 0 40 -139 60 -207 30z"/>
<path d="M450 2300 c-25 -25 -26 -72 -2 -93 19 -17 78 -23 99 -9 31 20 37 112
7 112 -9 0 -14 -12 -14 -34 0 -19 -4 -37 -9 -40 -10 -6 -21 26 -21 62 0 28
-32 30 -60 2z m40 -51 c0 -10 -7 -19 -15 -19 -15 0 -21 31 -9 43 11 10 24 -3
24 -24z"/>
<path d="M4067 2256 c-8 -19 1 -26 35 -26 24 0 28 -4 28 -28 0 -43 26 -72 64
-72 43 0 58 19 64 79 l4 48 -47 6 c-81 12 -142 8 -148 -7z m163 -50 c0 -7 -7
-19 -16 -27 -18 -15 -47 -2 -52 25 -3 12 4 16 32 16 24 0 36 -5 36 -14z"/>
<path d="M486 2138 c-9 -12 -16 -30 -16 -39 0 -9 -7 -22 -16 -30 -13 -10 -17
-10 -25 2 -5 8 -8 24 -6 37 3 16 -1 22 -14 22 -15 0 -19 -7 -19 -33 0 -92 95
-106 115 -17 4 16 11 33 17 36 16 10 40 -28 33 -53 -4 -18 -1 -23 15 -23 16 0
20 7 20 31 0 76 -67 120 -104 67z"/>
<path d="M4120 2088 c-100 -18 -105 -42 -18 -93 47 -28 63 -33 69 -23 15 22
10 28 -38 50 l-48 22 50 6 c42 4 50 8 53 28 2 12 0 21 -5 21 -4 -1 -33 -6 -63
-11z"/>
<path d="M546 1937 c-49 -15 -68 -43 -54 -77 6 -14 12 -33 13 -42 3 -27 6 -28
73 -11 48 12 62 20 62 34 0 21 -18 24 -67 10 -24 -7 -35 -6 -43 4 -17 21 -4
34 46 46 32 8 44 16 44 30 0 22 -17 23 -74 6z"/>
<path d="M4021 1927 c-15 -15 -14 -47 2 -47 7 0 18 5 24 11 18 18 73 1 73 -22
0 -10 7 -19 15 -19 8 0 15 7 15 16 0 11 6 14 20 9 16 -5 20 -2 20 15 0 11 -7
23 -15 26 -8 4 -13 9 -10 13 7 13 -131 11 -144 -2z"/>
<path d="M4001 1846 c-16 -19 -6 -36 20 -36 15 0 20 6 17 22 -4 27 -21 33 -37
14z"/>
<path d="M3940 1790 c0 -13 39 -49 74 -67 16 -8 55 -18 86 -20 46 -5 58 -3 63
11 5 13 -1 16 -36 16 -42 0 -138 38 -151 59 -9 14 -36 15 -36 1z"/>
<path d="M590 1767 c-39 -19 -45 -26 -47 -57 -3 -37 19 -76 36 -65 8 4 8 12 1
25 -5 10 -10 27 -10 37 0 14 6 10 26 -14 26 -34 60 -43 82 -21 16 16 15 44 -3
62 -9 8 -15 19 -14 23 7 39 -8 41 -71 10z m58 -50 c2 -10 -3 -17 -12 -17 -18
0 -29 16 -21 31 9 14 29 6 33 -14z"/>
<path d="M3923 1639 c-16 -16 -5 -39 17 -39 25 0 35 18 20 35 -15 18 -22 19
-37 4z"/>
<path d="M650 1633 c-48 -18 -65 -70 -34 -104 15 -16 14 -19 -15 -34 -32 -16
-36 -22 -23 -41 5 -8 35 1 99 31 71 34 92 47 87 59 -3 9 -10 16 -15 16 -5 0
-9 11 -9 24 0 39 -47 65 -90 49z m44 -39 c25 -9 19 -43 -9 -56 -21 -9 -29 -9
-41 4 -15 14 -14 18 5 37 23 23 23 23 45 15z"/>
<path d="M3870 1529 c-20 -43 -22 -52 -10 -59 11 -7 19 -1 33 25 l17 35 72
-36 c56 -28 73 -33 79 -22 5 7 9 15 9 18 0 6 -155 90 -167 90 -5 0 -20 -23
-33 -51z"/>
<path d="M755 1449 c-36 -23 -40 -23 -58 -5 -12 12 -18 13 -32 2 -17 -12 -17
-14 2 -27 11 -8 21 -17 21 -22 2 -29 12 -28 69 3 53 29 60 37 52 52 -12 22
-16 22 -54 -3z"/>
<path d="M3806 1418 c-19 -27 -12 -40 20 -32 29 8 76 -20 68 -40 -6 -17 12
-31 21 -16 4 6 15 8 26 5 23 -8 37 19 20 39 -6 7 -8 16 -4 19 6 7 -12 11 -31
8 -4 -1 -24 7 -43 19 -43 25 -58 25 -77 -2z"/>
<path d="M951 1169 c-62 -126 -111 -232 -109 -234 2 -2 55 99 118 225 63 126
112 232 109 235 -3 2 -56 -99 -118 -226z"/>
<path d="M3536 1370 c10 -37 223 -458 223 -440 0 8 -52 116 -115 240 -63 124
-111 214 -108 200z"/>
<path d="M790 1367 c-44 -23 -110 -69 -110 -77 0 -4 6 -12 13 -18 9 -8 28 0
71 29 61 41 73 43 89 17 16 -24 2 -44 -52 -80 -28 -18 -51 -39 -51 -46 0 -29
32 -22 87 20 72 55 81 91 34 138 -33 33 -45 36 -81 17z"/>
<path d="M3752 1338 c-7 -7 -12 -23 -12 -36 0 -13 -4 -21 -9 -18 -5 3 -14 0
-20 -8 -10 -11 4 -26 71 -74 74 -54 84 -59 96 -44 10 14 8 20 -15 40 -20 16
-24 25 -15 29 37 15 33 80 -7 110 -21 16 -74 16 -89 1z m73 -48 c17 -19 17
-22 2 -37 -15 -15 -18 -15 -41 1 -25 16 -33 36 -19 49 13 13 40 7 58 -13z"/>
<path d="M1147 1180 c-38 -17 -76 -30 -84 -30 -12 0 -13 -3 -4 -14 11 -13 15
-12 33 6 l20 20 29 -28 c27 -26 28 -29 14 -50 -12 -18 -12 -24 -1 -33 10 -9
15 -7 19 6 2 10 16 48 30 86 14 37 23 67 19 67 -4 -1 -38 -14 -75 -30z m42
-20 c-6 -16 -14 -30 -19 -30 -10 0 -34 29 -29 35 4 3 41 20 56 24 1 1 -3 -12
-8 -29z"/>
<path d="M3460 1197 c0 -2 7 -18 16 -36 22 -44 15 -52 -28 -31 -26 12 -40 14
-47 7 -8 -8 6 -16 48 -29 44 -13 62 -24 67 -40 4 -13 2 -24 -5 -26 -13 -4 -15
-32 -2 -32 23 0 21 45 -5 111 -23 58 -44 95 -44 76z"/>
<path d="M1332 1081 c-7 -15 -29 -46 -50 -69 -34 -37 -36 -41 -20 -51 14 -9
18 -8 18 2 0 8 9 22 20 32 16 14 23 15 34 6 8 -7 27 -11 43 -9 25 3 28 7 28
37 0 25 -7 39 -30 57 l-31 23 -12 -28z m56 -44 c-4 -29 -32 -44 -52 -28 -14
12 -14 16 5 43 17 23 24 27 35 17 8 -7 14 -21 12 -32z"/>
<path d="M3347 1093 c-13 -12 -7 -21 11 -16 13 3 26 -6 42 -30 14 -21 30 -33
38 -30 9 4 3 17 -24 44 -37 38 -54 46 -67 32z"/>
<path d="M3308 1055 c-8 -8 71 -87 81 -80 5 3 -4 20 -20 37 -16 18 -29 36 -29
40 0 9 -24 11 -32 3z"/>
<path d="M3263 1003 c13 -16 14 -20 1 -37 -32 -44 2 -91 35 -49 9 11 22 18 29
15 19 -6 14 6 -20 49 -17 21 -38 39 -46 39 -13 0 -13 -2 1 -17z m40 -69 c-6
-16 -29 -19 -38 -4 -3 5 -1 19 6 32 11 20 12 21 25 4 7 -10 10 -24 7 -32z"/>
<path d="M3227 1003 c-10 -10 -8 -43 2 -43 5 0 8 11 7 25 0 14 -1 25 -2 25 0
0 -4 -3 -7 -7z"/>
<path d="M1412 986 c4 -5 -2 -26 -13 -46 -24 -43 -22 -74 6 -78 19 -3 19 -2 2
8 -17 11 -17 14 7 55 22 41 23 45 8 57 -10 7 -14 8 -10 4z"/>
<path d="M1545 960 c3 -6 -9 -37 -27 -70 -26 -48 -30 -64 -22 -78 16 -25 59
-27 83 -3 34 34 22 92 -18 91 -14 -1 -13 -3 2 -14 31 -24 14 -86 -24 -86 -32
0 -32 24 0 89 35 69 37 81 15 81 -8 0 -12 -5 -9 -10z"/>
<path d="M3153 953 c-20 -7 -15 -22 5 -16 24 6 55 -29 55 -63 0 -18 2 -22 8
-13 14 22 10 45 -12 73 -20 25 -31 29 -56 19z"/>
<path d="M1447 894 c-20 -39 -23 -54 -13 -54 7 0 16 8 19 18 3 9 14 29 24 44
11 18 14 31 8 37 -6 5 -20 -12 -38 -45z"/>
<path d="M3110 921 c0 -23 82 -139 95 -135 10 4 9 10 -7 26 -15 15 -17 22 -8
28 8 5 6 9 -7 12 -11 3 -27 22 -37 42 -16 33 -36 48 -36 27z"/>
<path d="M1664 901 c3 -5 -8 -38 -24 -75 -35 -77 -34 -72 -14 -80 8 -3 13 -2
10 3 -4 5 7 39 24 76 34 77 36 85 14 85 -8 0 -13 -4 -10 -9z"/>
<path d="M3035 883 c-10 -9 -27 -17 -38 -18 -11 0 -22 -6 -24 -13 -3 -7 1 -10
11 -6 10 4 21 -6 35 -34 11 -22 17 -43 13 -46 -3 -4 1 -4 10 -1 15 6 15 10 -2
48 -16 36 -17 44 -5 56 11 11 17 12 29 2 14 -12 31 -58 27 -75 -1 -5 5 -6 14
-2 9 3 18 6 21 6 8 0 -52 94 -63 97 -6 2 -19 -4 -28 -14z"/>
<path d="M1735 870 c4 -6 11 -8 16 -5 14 9 11 15 -7 15 -8 0 -12 -5 -9 -10z"/>
<path d="M1072 837 c-24 -25 -29 -75 -12 -108 9 -16 58 -49 74 -49 12 0 48 62
40 70 -6 6 -18 -3 -29 -20 -22 -33 -33 -36 -60 -16 -44 32 3 136 62 136 32 0
66 -36 59 -63 -5 -21 -4 -21 9 -3 13 17 12 22 -15 48 -39 37 -96 39 -128 5z"/>
<path d="M2936 841 c-4 -6 -2 -18 4 -26 7 -8 18 -30 24 -49 7 -21 16 -32 23
-28 7 5 2 25 -16 61 -18 34 -31 50 -35 42z"/>
<path d="M1705 820 c3 -5 -3 -30 -14 -55 -14 -32 -16 -45 -7 -45 6 0 20 21 29
48 21 58 21 62 1 62 -8 0 -12 -4 -9 -10z"/>
<path d="M2718 823 c7 -3 16 -2 19 1 4 3 -2 6 -13 5 -11 0 -14 -3 -6 -6z"/>
<path d="M2750 821 c0 -6 5 -13 10 -16 6 -3 10 1 10 9 0 9 -4 16 -10 16 -5 0
-10 -4 -10 -9z"/>
<path d="M2660 793 c-28 -36 -21 -89 15 -120 33 -29 66 -29 96 -2 l24 21 -25
-16 c-33 -22 -47 -20 -75 9 -30 29 -34 94 -9 119 8 9 11 16 5 16 -5 0 -19 -12
-31 -27z"/>
<path d="M1962 794 c-30 -21 -28 -37 13 -76 22 -20 35 -41 33 -53 -4 -28 -42
-31 -60 -6 -13 19 -28 19 -28 1 0 -9 47 -30 69 -30 20 0 51 30 51 49 0 6 -19
30 -42 52 l-43 40 24 19 c28 24 15 27 -17 4z"/>
<path d="M2832 798 c-28 -28 -6 -98 31 -98 19 1 19 2 6 10 -27 15 -44 67 -29
85 15 18 9 20 -8 3z"/>
<path d="M2885 785 c27 -27 32 -53 13 -75 -11 -12 -10 -12 5 -1 20 15 23 71 5
89 -7 7 -20 12 -30 12 -14 0 -13 -4 7 -25z"/>
<path d="M1767 782 c-30 -33 -17 -102 18 -102 6 0 19 6 29 13 16 12 15 13 -11
12 -24 0 -28 4 -31 31 -2 19 3 36 12 43 17 14 51 7 41 -8 -3 -5 -1 -12 4 -15
17 -11 22 12 5 28 -21 21 -47 20 -67 -2z"/>
<path d="M2023 780 c6 -10 15 -16 19 -14 14 9 9 22 -11 27 -17 4 -18 2 -8 -13z"/>
<path d="M3419 784 c-8 -10 -9 -15 -2 -11 7 4 28 -16 55 -53 46 -64 54 -68 83
-46 19 13 18 14 -6 9 -20 -4 -30 1 -43 22 -10 15 -15 33 -12 41 10 25 45 16
66 -18 16 -27 20 -29 20 -13 0 53 -77 92 -95 48 -6 -16 -9 -15 -29 10 -21 26
-24 27 -37 11z"/>
<path d="M2315 740 c-11 -18 -7 -122 6 -134 6 -6 13 -6 21 2 9 9 9 12 0 12 -8
0 -12 17 -12 45 0 29 4 45 13 45 8 0 9 3 1 8 -6 4 -13 14 -16 22 -4 12 -6 12
-13 0z"/>
<path d="M2086 714 c-9 -8 -16 -31 -16 -50 0 -27 5 -37 25 -46 22 -10 29 -9
45 10 11 12 15 17 8 12 -19 -16 -36 -12 -53 14 -13 20 -14 29 -5 46 13 25 46
23 44 -3 -1 -9 4 -17 12 -17 17 0 18 22 2 38 -17 17 -44 15 -62 -4z"/>
<path d="M2501 721 c-8 -5 -9 -10 -3 -12 6 -2 12 -25 14 -51 4 -63 23 -56 23
8 0 41 3 49 18 46 9 -2 17 2 17 8 0 13 -27 13 -36 -1 -4 -8 -9 -8 -13 -1 -4 6
-12 7 -20 3z"/>
<path d="M1196 698 c-9 -12 -16 -30 -16 -39 0 -21 32 -49 57 -49 45 0 71 72
36 101 -15 13 -15 12 -3 -7 18 -29 -12 -87 -43 -82 -30 4 -33 35 -8 69 17 23
18 29 7 29 -8 0 -22 -10 -30 -22z"/>
<path d="M2197 702 c-23 -25 -21 -65 2 -86 22 -20 56 -15 65 9 4 12 2 13 -14
3 -27 -17 -52 6 -48 46 2 23 9 32 26 34 15 2 22 -2 22 -12 0 -9 5 -16 10 -16
16 0 11 27 -6 34 -26 10 -40 7 -57 -12z"/>
<path d="M2386 704 c-24 -23 -20 -70 6 -88 32 -22 42 -20 18 4 -22 22 -27 69
-8 88 7 7 9 12 6 12 -4 0 -14 -7 -22 -16z"/>
<path d="M2427 712 c22 -14 34 -61 22 -85 -11 -21 -10 -21 6 -5 32 30 16 98
-24 98 -11 0 -12 -3 -4 -8z"/>
<path d="M3280 700 c0 -5 5 -10 10 -10 6 0 10 5 10 10 0 6 -4 10 -10 10 -5 0
-10 -4 -10 -10z"/>
<path d="M3415 696 c17 -12 17 -14 2 -37 -33 -46 -7 -90 32 -55 10 9 23 16 29
16 18 0 15 8 -20 51 -17 21 -38 39 -47 39 -12 0 -11 -3 4 -14z m38 -72 c-6
-16 -29 -19 -38 -4 -3 5 -1 19 6 32 11 20 12 21 25 4 7 -10 10 -24 7 -32z"/>
<path d="M3377 693 c-10 -10 -8 -43 2 -43 5 0 8 11 7 25 0 14 -1 25 -2 25 0 0
-4 -3 -7 -7z"/>
<path d="M1327 613 c-2 -32 -3 -60 -1 -62 2 -2 23 11 48 30 24 19 42 36 40 38
-2 2 -17 -9 -35 -23 -17 -15 -33 -26 -34 -24 -2 2 0 22 4 45 5 23 6 45 3 48
-14 13 -20 0 -25 -52z"/>
<path d="M3310 645 c-7 -9 -8 -15 -2 -15 13 0 72 -95 72 -115 0 -9 -6 -12 -15
-9 -8 4 -15 1 -15 -6 0 -6 8 -10 18 -8 30 6 26 51 -11 112 -29 48 -36 54 -47
41z"/>
<path d="M3230 600 c-6 -11 -14 -19 -18 -17 -14 4 -10 -19 11 -55 11 -21 24
-38 29 -38 13 0 10 12 -12 48 -16 27 -18 37 -9 48 6 8 15 14 19 14 12 0 51
-70 45 -81 -4 -5 1 -6 9 -3 21 8 20 10 -9 61 -28 47 -48 54 -65 23z"/>
<path d="M1426 568 c-30 -42 -15 -88 28 -88 20 0 20 1 -2 16 -22 15 -31 64
-11 64 5 0 8 4 5 9 -4 5 0 12 6 14 9 4 10 6 1 6 -6 1 -19 -9 -27 -21z"/>
<path d="M1485 565 c0 -14 6 -27 13 -30 9 -3 12 3 10 22 -4 34 -23 41 -23 8z"/>
<path d="M2958 549 l-26 -10 25 -61 c13 -34 25 -70 26 -80 1 -11 7 -16 15 -13
7 3 15 5 17 5 2 0 -3 13 -11 30 -9 16 -13 34 -9 40 3 5 2 10 -3 10 -6 0 -15
14 -21 32 -9 24 -8 34 1 40 20 12 26 10 42 -14 11 -15 12 -26 5 -40 -11 -20 1
-24 19 -6 18 18 14 56 -7 68 -23 12 -37 12 -73 -1z"/>
<path d="M3136 552 c5 -4 16 -23 24 -42 17 -45 25 -54 40 -45 8 5 8 10 2 14
-5 3 -17 23 -25 44 -10 23 -23 37 -34 37 -11 0 -14 -3 -7 -8z"/>
<path d="M1540 537 c0 -7 -8 -29 -19 -49 -15 -31 -16 -38 -4 -42 21 -8 25 -7
18 4 -3 5 2 24 12 42 22 43 24 58 7 58 -8 0 -14 -6 -14 -13z"/>
<path d="M1582 531 c2 -7 7 -12 11 -12 12 1 9 15 -3 20 -7 2 -11 -2 -8 -8z"/>
<path d="M3083 533 c-18 -6 35 -93 57 -93 10 0 21 4 24 9 3 5 -2 8 -12 7 -11
-1 -24 14 -37 40 -11 22 -25 39 -32 37z"/>
<path d="M1612 478 c-7 -24 -15 -49 -18 -55 -3 -7 1 -13 9 -13 8 0 17 13 20
29 3 16 12 35 20 42 15 16 11 39 -7 39 -6 0 -17 -19 -24 -42z"/>
<path d="M1678 487 c8 -9 6 -24 -8 -54 -16 -36 -16 -42 -3 -47 8 -3 15 -6 16
-6 1 0 3 10 4 23 1 12 5 39 9 60 5 31 3 37 -11 37 -13 0 -15 -3 -7 -13z"/>
<path d="M1747 473 c-3 -5 -8 -24 -12 -43 -4 -19 -11 -40 -16 -46 -6 -8 -3
-13 11 -17 11 -3 18 -1 15 3 -3 5 1 28 10 52 17 51 18 58 6 58 -6 0 -12 -3
-14 -7z"/>
<path d="M1790 461 c0 -5 5 -11 12 -13 9 -3 8 -16 -4 -51 -13 -39 -13 -47 -2
-47 8 0 14 8 14 18 0 9 6 29 14 44 13 24 12 28 -3 42 -20 18 -31 20 -31 7z"/>
<path d="M2643 458 c2 -7 10 -46 17 -85 8 -43 18 -73 25 -73 9 0 10 9 2 38
-12 44 -5 72 17 72 16 0 27 -29 30 -75 0 -14 6 -23 11 -22 12 4 7 64 -6 90
-11 20 -40 22 -57 5 -9 -9 -12 -7 -12 9 0 29 -10 53 -22 53 -6 0 -8 -6 -5 -12z"/>
<path d="M1858 439 c16 -17 15 -48 -2 -81 -12 -23 -13 -28 -1 -28 16 0 38 60
33 92 -2 13 -11 24 -23 26 -16 3 -18 1 -7 -9z"/>
<path d="M2462 438 c-6 -6 -12 -20 -12 -29 0 -10 -6 -20 -12 -22 -10 -4 -10
-6 0 -6 8 -1 12 -18 12 -51 0 -33 4 -50 13 -50 8 0 11 15 9 49 -3 41 -1 50 15
54 16 4 16 5 1 6 -12 1 -18 9 -18 26 0 27 18 33 39 13 11 -11 13 -10 9 2 -6
19 -40 24 -56 8z"/>
<path d="M2830 430 c12 -12 25 -18 31 -14 14 9 -9 34 -32 34 -18 0 -18 -1 1
-20z"/>
<path d="M2184 413 c-6 -10 -10 -43 -10 -73 1 -47 4 -55 21 -57 11 -2 14 0 8
3 -8 3 -13 24 -13 50 0 35 3 44 18 44 11 0 13 3 6 8 -7 4 -13 15 -15 25 -4 17
-4 17 -15 0z"/>
<path d="M2582 410 c-7 -12 -8 -20 -2 -20 5 0 10 -12 10 -27 0 -61 25 -95 46
-61 4 7 3 8 -5 4 -13 -9 -18 3 -25 68 -6 58 -8 61 -24 36z"/>
<path d="M1930 401 c-14 -26 -13 -64 2 -79 18 -18 53 -15 69 6 13 15 12 16 -3
3 -21 -16 -43 -9 -58 19 -9 17 -7 22 12 30 19 7 20 9 4 9 -15 1 -16 4 -6 16 8
10 9 15 2 15 -6 0 -16 -9 -22 -19z"/>
<path d="M1987 395 c3 -14 10 -25 15 -25 13 0 6 43 -8 47 -7 2 -10 -6 -7 -22z"/>
<path d="M2781 394 c-2 -52 51 -83 80 -48 12 15 11 16 -9 10 -36 -12 -75 35
-39 47 6 2 4 3 -5 2 -9 -2 -19 2 -22 9 -2 6 -5 -3 -5 -20z"/>
<path d="M2049 408 c0 -2 -2 -22 -5 -45 -2 -24 -5 -48 -6 -54 -2 -6 3 -14 10
-16 8 -3 12 7 12 34 0 40 14 63 38 63 11 0 13 -12 10 -50 -2 -29 1 -51 8 -54
6 -2 10 17 10 53 -1 54 -2 56 -28 56 -16 -1 -28 3 -28 7 0 7 -19 12 -21 6z"/>
<path d="M2317 372 c-23 -25 -22 -65 2 -86 26 -24 62 -17 81 17 13 24 13 30 0
55 -19 33 -59 41 -83 14z m67 -29 c9 -35 -4 -63 -30 -63 -20 0 -38 44 -30 75
10 38 47 31 60 -12z"/>
</g>
</svg>
